<svg width="24" height="27" viewBox="0 0 24 27" fill="none" xmlns="http://www.w3.org/2000/svg">
<path d="M1.40535 26.0212C0.83831 26.0212 0.324015 25.6783 0.107747 25.1535C-0.111159 24.6286 0.0101622 24.022 0.411049 23.6211L8.05955 15.9726C8.61077 15.4241 9.49958 15.4241 10.0482 15.9726C10.5994 16.5212 10.5994 17.4127 10.0482 17.9613L2.39966 25.6098C2.13856 25.8735 1.77987 26.0212 1.40535 26.0212Z" fill="#ED952B"/>
<path d="M23.9231 0.0769454L3.92359 20.0738C-0.254072 15.8962 -0.254072 9.12064 3.92359 4.94034C9.86832 -1.00439 23.9231 0.0769454 23.9231 0.0769454Z" fill="#FEC86E"/>
<path d="M19.0565 20.073C14.8789 24.2533 8.10334 24.2533 3.92303 20.073L23.9225 0.0761719C23.9225 0.0761719 25.0039 14.1283 19.0565 20.073Z" fill="#ED952B"/>
</svg>
