<svg xmlns="http://www.w3.org/2000/svg" fill="none">
	<symbol id="arrow-right" viewBox="0 0 24 24">
		<path stroke="currentColor" d="M16 19C16 18.258 16.733 17.15 17.475 16.22C18.429 15.02 19.569 13.973 20.876 13.174C21.856 12.575 23.044 12 24 12M24 12C23.044 12 21.855 11.425 20.876 10.826C19.569 10.026 18.429 8.979 17.475 7.781C16.733 6.85 16 5.74 16 5M24 12H0" />
	</symbol>

	<symbol id="arrow-up-right" viewBox="0 0 20 20">
		<path fill="none" stroke="currentColor" d="M5.59961 5.60156H13.5996V13.6016" stroke-width="2" stroke-linecap="round" stroke-linejoin="round" />
		<path fill="none" stroke="currentColor" d="M5.59961 13.6016L13.5996 5.60156" stroke-width="2" stroke-linecap="round" stroke-linejoin="round" />
	</symbol>

	<symbol id="arrow-up-right-circle" viewBox="0 0 36 36">
    <path fill="currentColor" d="M17.9167 0C8.03667 0 0 8.03667 0 17.9167C0 27.7967 8.03667 35.8333 17.9167 35.8333C27.7967 35.8333 35.8333 27.7967 35.8333 17.9167C35.8333 8.03667 27.7967 0 17.9167 0ZM17.9167 33.3333C9.415 33.3333 2.5 26.4183 2.5 17.9167C2.5 9.415 9.415 2.5 17.9167 2.5C26.4183 2.5 33.3333 9.415 33.3333 17.9167C33.3333 26.4183 26.4183 33.3333 17.9167 33.3333ZM24.0698 12.4382C24.1332 12.5915 24.1667 12.7533 24.1667 12.9167V19.5833C24.1667 20.2733 23.6067 20.8333 22.9167 20.8333C22.2267 20.8333 21.6667 20.2733 21.6667 19.5833V15.9351L13.8 23.8017C13.5567 24.045 13.2367 24.1683 12.9167 24.1683C12.5967 24.1683 12.2766 24.0467 12.0333 23.8017C11.545 23.3133 11.545 22.5216 12.0333 22.0333L19.8999 14.1667H16.25C15.56 14.1667 15 13.6067 15 12.9167C15 12.2267 15.56 11.6667 16.25 11.6667H22.9167C23.08 11.6667 23.2418 11.7002 23.3952 11.7635C23.7002 11.8902 23.9432 12.1332 24.0698 12.4382Z" />
	</symbol>

	<symbol id="play" viewBox="0 0 11 14">
		<path fill="currentColor" d="M5.253 1.25776L5.187 1.21776C4.439 0.762757 3.781 0.361757 3.217 0.159757C2.90609 0.0402635 2.5737 -0.0132039 2.241 0.0027572C1.89078 0.0294913 1.55602 0.158108 1.278 0.372757C0.699 0.806757 0.449 1.44576 0.312 2.15276C0.179 2.83776 0.128 3.72976 0.0650001 4.81576L0.0619998 4.87176C0.0239998 5.52176 0 6.16476 0 6.74776C0 7.33076 0.0239998 7.97476 0.0619998 8.62476L0.0650001 8.67976C0.128 9.76576 0.179 10.6578 0.312 11.3418C0.449 12.0498 0.699 12.6878 1.278 13.1228C1.564 13.3378 1.885 13.4658 2.241 13.4928C2.583 13.5178 2.911 13.4458 3.217 13.3358C3.781 13.1338 4.439 12.7328 5.187 12.2788L5.253 12.2388C5.679 11.9788 6.097 11.7118 6.47 11.4488C6.9268 11.1238 7.37207 10.7829 7.805 10.4268L7.855 10.3858C8.619 9.76276 9.267 9.23376 9.715 8.71376C10.203 8.14376 10.5 7.53176 10.5 6.74776C10.5 5.96376 10.203 5.35076 9.714 4.78176C9.267 4.26176 8.619 3.73176 7.856 3.10976L7.806 3.06876C7.352 2.69876 6.896 2.34476 6.47 2.04676C6.07274 1.77069 5.66687 1.50723 5.253 1.25676" />
	</symbol>

	<symbol id="twitter" viewBox="0 0 20 17">
	  <path fill="currentColor" d="M6.2918 16.2506C13.8371 16.2506 17.9652 9.99786 17.9652 4.57716C17.9652 4.40138 17.9613 4.22169 17.9535 4.04591C18.7566 3.46516 19.4496 2.74582 20 1.92169C19.2521 2.25444 18.458 2.47176 17.6449 2.56622C18.5011 2.05303 19.1421 1.24684 19.4492 0.297083C18.6438 0.774408 17.763 1.11112 16.8445 1.29279C16.2257 0.635244 15.4075 0.199874 14.5164 0.0539862C13.6253 -0.0919016 12.711 0.059819 11.9148 0.485691C11.1186 0.911562 10.4848 1.58786 10.1115 2.41004C9.73825 3.23221 9.64619 4.15446 9.84961 5.03419C8.21874 4.95235 6.62328 4.5287 5.16665 3.79069C3.71002 3.05269 2.42474 2.01681 1.39414 0.750208C0.870333 1.65331 0.710047 2.72198 0.945859 3.73902C1.18167 4.75606 1.79589 5.64515 2.66367 6.2256C2.01219 6.20491 1.37498 6.02951 0.804688 5.71388V5.76466C0.804104 6.7124 1.13175 7.6311 1.73192 8.36458C2.3321 9.09807 3.16777 9.60108 4.09687 9.7881C3.49338 9.95322 2.85999 9.97727 2.2457 9.85841C2.50788 10.6735 3.01798 11.3864 3.70481 11.8976C4.39164 12.4088 5.22093 12.6928 6.07695 12.71C4.62369 13.8515 2.82848 14.4707 0.980469 14.4678C0.652739 14.4673 0.325333 14.4472 0 14.4076C1.87738 15.6121 4.06128 16.2518 6.2918 16.2506Z" />
	</symbol>

	<symbol id="linkedin" viewBox="0 0 20 20">
  	<path fill="currentColor" d="M18.5195 0H1.47656C0.660156 0 0 0.644531 0 1.44141V18.5547C0 19.3516 0.660156 20 1.47656 20H18.5195C19.3359 20 20 19.3516 20 18.5586V1.44141C20 0.644531 19.3359 0 18.5195 0ZM5.93359 17.043H2.96484V7.49609H5.93359V17.043ZM4.44922 6.19531C3.49609 6.19531 2.72656 5.42578 2.72656 4.47656C2.72656 3.52734 3.49609 2.75781 4.44922 2.75781C5.39844 2.75781 6.16797 3.52734 6.16797 4.47656C6.16797 5.42188 5.39844 6.19531 4.44922 6.19531ZM17.043 17.043H14.0781V12.4023C14.0781 11.2969 14.0586 9.87109 12.5352 9.87109C10.9922 9.87109 10.7578 11.0781 10.7578 12.3242V17.043H7.79688V7.49609H10.6406V8.80078H10.6797C11.0742 8.05078 12.043 7.25781 13.4844 7.25781C16.4883 7.25781 17.043 9.23438 17.043 11.8047V17.043Z" />
	</symbol>

	<symbol id="facebook" viewBox="0 0 20 20">
    <path fill="currentColor" d="M20 10C20 4.47715 15.5229 0 10 0C4.47715 0 0 4.47715 0 10C0 14.9912 3.65684 19.1283 8.4375 19.8785V12.8906H5.89844V10H8.4375V7.79688C8.4375 5.29063 9.93047 3.90625 12.2146 3.90625C13.3084 3.90625 14.4531 4.10156 14.4531 4.10156V6.5625H13.1922C11.95 6.5625 11.5625 7.3334 11.5625 8.125V10H14.3359L13.8926 12.8906H11.5625V19.8785C16.3432 19.1283 20 14.9912 20 10Z" />
	</symbol>

	<symbol id="dribbble" viewBox="0 0 20 20">
  	<path fill="currentColor" fill-rule="evenodd" clip-rule="evenodd" d="M10 0C4.47939 0 0 4.47939 0 10C0 15.5206 4.47939 20 10 20C15.5098 20 20 15.5206 20 10C20 4.47939 15.5098 0 10 0ZM16.6052 4.60954C17.7983 6.06291 18.5141 7.91756 18.5358 9.92406C18.2538 9.86987 15.4338 9.295 12.5922 9.65294C12.5271 9.51194 12.4729 9.36006 12.4078 9.20825C12.2343 8.79613 12.0391 8.37313 11.8438 7.97181C14.9891 6.692 16.4208 4.84816 16.6052 4.60954ZM10 1.47506C12.1692 1.47506 14.154 2.28851 15.6616 3.62256C15.5097 3.83948 14.2191 5.56399 11.1822 6.70281C9.78306 4.13232 8.23213 2.0282 7.9935 1.70282C8.63338 1.55097 9.30587 1.47506 10 1.47506ZM6.36662 2.27766C6.59437 2.58134 8.11281 4.69631 9.53363 7.21256C5.5423 8.2755 2.01736 8.25381 1.63774 8.25381C2.19089 5.60738 3.98047 3.40564 6.36662 2.27766ZM1.45336 10.0109C1.45336 9.92406 1.45336 9.83731 1.45336 9.75056C1.82213 9.76137 5.96529 9.81563 10.2278 8.53581C10.4773 9.013 10.705 9.50106 10.9219 9.98913C10.8134 10.0217 10.6941 10.0542 10.5857 10.0868C6.18221 11.5076 3.83948 15.3904 3.64425 15.7158C2.2885 14.2083 1.45336 12.2018 1.45336 10.0109ZM10 18.5466C8.026 18.5466 6.20391 17.8742 4.76139 16.7462C4.91323 16.4317 6.64856 13.0911 11.4642 11.41C11.4859 11.3991 11.4968 11.3991 11.5184 11.3883C12.7223 14.5011 13.2104 17.1149 13.3406 17.8633C12.3102 18.308 11.1822 18.5466 10 18.5466ZM14.7614 17.0824C14.6746 16.5618 14.2191 14.0673 13.1019 10.9978C15.7809 10.5748 18.1236 11.269 18.4165 11.3666C18.0478 13.7419 16.6811 15.7917 14.7614 17.0824Z" />
	</symbol>
</svg>
